<svg version="1.2" xmlns="http://www.w3.org/2000/svg" viewBox="0 0 1080 1080" width="32" height="32">
	<title>template</title>
	<style>
		.s0 { fill: #131d40 } 
		.s1 { fill: #f3d73f } 
	</style>
	<path id="Background" class="s0" d="m0 0h1080v1080h-1080z"/>
	<path id="M" class="s1" aria-label="M"  d="m935.5 836.3l80.6 18.3-3.6 48.4h-287.3l3.7-46.9q32.2-13.9 85.7-24.9l-28.6-534.9-214.7 574.5q-31.5 3.6-63.7 3.6-21.3 0-31.5-0.7l-214-573-29.3 535.6 92.3 18.3-3.6 48.4h-258l3.7-46.9q32.2-15.4 74-24.9l38.1-587-89.4-18.3 3.7-48.3h248.4l198.6 554.7 195.6-554.7h246.9l-3.6 46.9q-33.7 13.2-82.8 24.9z"/>
</svg>